<svg xmlns="http://www.w3.org/2000/svg" width="24" height="24" viewBox="0 0 24 24" fill="none" stroke="#4A7BBF" stroke-width="2" stroke-linecap="round" stroke-linejoin="round">
  <path d="M12 2a2 2 0 0 0-2 2c0 1.1-.9 2-2 2s-2-.9-2-2c0-1.1-.9-2-2-2a2 2 0 0 0 0 4c1.1 0 2 .9 2 2s-.9 2-2 2a2 2 0 0 0 0 4c1.1 0 2 .9 2 2s-.9 2-2 2a2 2 0 0 0 0 4c1.1 0 2-.9 2-2c0-1.1.9-2 2-2s2 .9 2 2c0 1.1.9 2 2 2a2 2 0 0 0 0-4c-1.1 0-2-.9-2-2s.9-2 2-2a2 2 0 0 0 0-4c-1.1 0-2-.9-2-2s.9-2 2-2a2 2 0 0 0 0-4c-1.1 0-2 .9-2 2 0 1.1-.9 2-2 2s-2-.9-2-2a2 2 0 0 0-2-2z"/>
</svg>